<?xml version="1.0" encoding="UTF-8"?>
<svg id="Capa_2" data-name="Capa 2" xmlns="http://www.w3.org/2000/svg" viewBox="0 0 825.57 738.08">
  <defs>
    <style>
      .cls-1 {
        fill: #d82027;
      }
    </style>
  </defs>
  <g id="Capa_1-2" data-name="Capa 1">
    <g>
      <path class="cls-1" d="M118.15,397.08c-.74-.25-1.39-1.78-1.71-2.47-1.49-3.21-2.46-8.5-2.71-12.06-3.36-46.87,44.38-82.26,64.25-120.35,1.94-3.72,4.33-8.04,3.93-12.32-5.41,5.21-8.86,12.09-13.78,17.73-13.92,15.95-35.48,27.47-40.63,49.72-.67.72-.91-.06-.99-.74-.16-1.37.37-3.82.65-5.27,4.33-22.47,26.68-39.59,39.93-57.06,24.76-32.65,28.68-73.28,45.5-109.57,27.79-59.96,81.8-105.08,145.7-122.11,32.08-8.55,67.43-10.15,98.56,2.81-5.03-17.64-26.96-21.79-42.82-23.64.14-.73,2.25-1.28,2.82-1.36,6.72-.94,15.31-.18,21.9,1.5,14.93,3.81,27.41,14.21,34.18,27.96,6.36-1.62,11.32-5.46,17.79-7.28,20.06-5.66,42.36-1.64,57.21,13.4-.33.69-1.25-.09-1.72-.25-9.84-3.28-18.19-8.53-29.02-8.88-6.72-.22-18.38,1.67-24.41,4.68-1.83.92-4.4,2.7-.73,3.23,65.85,9.58,106.7,62.58,128.13,121.96,13.41,37.18,13.12,73.35,39.03,105.71,15.33,19.15,38.41,34.78,42.32,60.81-.89,1.16-5.14-9.84-5.5-10.5-9.98-18.53-33.53-29.43-45.61-45.95-1.85-2.53-5.79-10.72-7.68-12.01-.6-.41-1.01-.58-1.75-.46-.91.94,3.54,11.37,4.34,13.13,14.79,32.43,47.97,52.37,61.86,85.33,1.01,2.4,6.16,16.42,6.16,17.96v21.91h-1.47c-1.55-19.33-9.78-35.65-21.48-50.66-6.07-7.79-13.23-15.52-20.87-21.71l21.91,39.87c8.6,16.41,15.84,33.86,16.48,52.68,18.84-5.19,36.12-21.13,43.19-39.26.53-1.37,3.08-8.39,3.08-9.23v-16.49c1.75.97,2.33,4,2.73,5.89,4.56,21.6-12.79,42.13-28.82,54.17,29.72-7.28,50.16-36.8,50.71-66.95,1.77-1.9,9.41,9.81,10.24,11.17,2.16,3.52,10.43,19.31,10.43,22.55v23.88c.52-.2,2.46-3.94,2.46-4.18v-19.94c1.27-.09,1.98,1.68,2.54,2.62,3.88,6.43,5.28,18.3,4.86,25.7-.66,11.54-5.66,22.2-9.86,32.71.74.76,5.75-4.47,6.38-5.18,6.71-7.48,12.03-17.06,18.46-24.86l1.24-.48c-2.17,23.04-20.85,41.8-41.37,50.44-2.16.91-14.08,4.21-14.26,4.95-.42,1.76,5.94,1.33,7.15,1.24,2.17-.17,9.26-2.12,10.58-1.26l.24,1.25c-20.97,18.91-51,18.91-76.56,10.33,12.02,12.58,30.9,14.2,46.65,19.56,1.02.35,2.61.49,3.07,1.6-24.25-.28-45.35-12.41-64.85-25.49-1.94-1.3-6.58-6.23-7.79-2.6-1.44,4.33,5.04,16.6,7.94,20.17,2.76,3.39,8.23,5.65,7.58,10.87-9.31-6.01-16.39-14.75-22.88-23.58-20.22,14.48-43.31,27.05-67.78,32.6-14.13,3.2-34.52,4.71-48.83,2.74-3.97-.55-10.72-3.5-14.22-2.79-2.27.46-7.7,4.79-9.87,6.38-6.83,5-13,11.52-20.19,15.75-8.27,4.86-17.91,7.78-26.6,11.8-29.05,13.44-55.74,35.94-90.15,31.92-30.08-3.51-83.23-36.54-107.31-55.64-4.56-3.61-8.25-8.87-14.14-10.47-11.75-3.18-28.25,2.38-40.52,3.09-16.44.96-45.93-2.8-60.79-10.1-2.19-1.08-4.16-3.12-6.42-3.92-2.55-.9-4.64-.4-6.9-.98-6.21-1.6-18.73-25.88-20.42-25.85-5.07,9.44-11.97,17.74-19.93,24.86-.78.7-5.26,4.85-5.91,4.18.31-5.54,6-8.42,9.06-12.84,4.76-6.87,7.74-15.88,9.15-24.07-.85-.22-.98.34-1.48.73-4.42,3.45-8.53,7.24-13.13,10.5-17.76,12.57-38.58,22.05-60.71,22.73.15-.93,1.04-.8,1.66-1.04,16.29-6.09,35.62-7.15,48.55-20.12-8.43,1.87-16.71,4.52-25.36,5.41-17.04,1.74-33.97-2.8-47.95-12.59-.64-.45-5.86-3.94-3.19-4.61.79-.2,7.94,1.37,9.78,1.47,1.34.08,8.54.56,8.14-1.24-.15-.67-11.05-3.57-12.93-4.31-20.94-8.22-41.28-27.53-42.69-51.08,6.96,7.1,11.71,16.3,18.22,23.86.79.91,6.74,7.73,7.86,6.65-8.67-16.19-12.45-33.41-8.04-51.6.86-3.54,1.81-7.87,5.08-9.93v19.94c0,.57,2.43,3.38,1.97,4.68.15.16.98-.64.98-.74v-24.12c0-3.09,9.38-20.34,11.61-23.83,2.02-3.17,4.86-8.97,9.07-8.41-.14,29.9,21.11,58.9,50.21,66.46-1.95-2.72-5.18-4.19-7.64-6.38-13.1-11.67-27.08-33.4-19.95-51.48.37-.94.66-2.36,1.99-2.2v18.46c0,.59,3.74,9.6,4.35,10.92,8.07,17.54,27.27,34.12,46.87,36.38.52-.38.8-10.34,1.03-12.28,4.05-33.64,27.21-61.71,40.73-91.7,1.82-4.05,4.17-8.52,4.5-12.98-.6.15-1.05.79-1.46,1.24-8.11,9.1-17.82,21.66-25.04,31.58-4.66,6.4-24.21,36.56-24.21,42.75v24.86ZM474.08,265.15c-18.87-42.77-22.57-89.71-32.16-134.98-.6-2.82-4.68-22.72-6.01-23.04-1.92-.46-1.64,4.25-1.78,5.1-6.68,41.43-11.09,94.47-31.85,131.1-3.47,6.12-8.07,13.43-13.86,17.39-1.85-2.52,12.33-26.54,14.2-30.84,14.59-33.48,15.41-77.68,19.76-113.65-.42-.9.85-4.98-.25-5.16s-1.06,1.02-1.29,1.65c-1.52,4.11-2.59,9.72-3.63,14.09-8.25,34.62-14.48,90.98-35.28,119.3-2.34,3.19-6.3,8.72-10.74,7.48,5.43-7.83,8.07-18.06,10.69-27.22,5.19-18.13,8.61-36.77,13.44-54.99,0-.43-1.06-.33-1.24-.25-1.01.47-5.77,11.77-6.52,13.66-4.36,10.91-7.39,22.34-11.44,33.36-3.75,10.23-11.04,30.05-21.56,34.56-.71.3-2.75,1.38-2.57-.1.54-4.37,7.82-13.34,10.08-17.99,6.29-12.97,11.38-33.3,14.98-47.54,3.9-15.41,9.37-36.67,10.8-52.21.05-.59.35-1.79-.18-2.15-3.73,5.39-5.72,12.63-7.64,18.94-9.57,31.36-15.17,79.04-46.92,96.34-1.32.72-8.32,4.19-9.19,3.36,1.33-5.56,7.41-8.67,11.08-12.79,6.83-7.67,12.65-21.01,16.72-30.54,11.47-26.91,19.14-55.27,26.14-83.65l-.27-1.5-64.72,129.03c-1.42,1.07-6.76-.46-6.19-3.24l9.85-61.3c-.84-.1-1.09-.08-1.71.5-.41.38-2.82,4.67-3.29,5.57-9.34,17.52-9.48,40.61-14.17,59.68-2.21.43-4.29.94-6.43-.02l-.51-1,6.18-57.34c-8.24,10.35-9.33,26.76-11.02,39.69-2.91,22.37-3.84,57.19-13.42,77.16-4.35,9.06-11.34,14.74-15.56,25.3-16.92,42.32-9.16,96.89,17.2,133.69,11.1,15.5,32.71,34.15,48.48,45.05,6.85,4.74,5.12-.89,10.38-3.78l1.11.14c18.93,24.15,52.57,49.68,84.91,47.53,17.01-1.13,38.69-12.19,50.48-24.35,2.81-2.9,11.44-14.27,14.28-15.25,4.96-1.71,4.53,3.33,7.84,3.97s16.01-6.95,19.54-9.08c31.99-19.22,54.68-45.92,64.12-82.58,7.3-28.33,8.85-82.63-11.04-106.06-1.18-1.39-7.9-7.2-8.05-7.74-.37-1.29.49-2.5.43-3.8-.88-20.81-4.95-40.92-6.91-61.56-.55-5.8-.53-11.67-.99-17.47l-13.63,44.17-2.61,1.61c-.7-30.72,5.55-61.3,1.92-92.01l-1.69-.06c-3.15,19.36-1.97,39.33-5.3,58.7-.45,2.61-1.96,11.37-4.29,12.45-2.2,1.02-2.34-2.29-2.48-3.92-2.44-28.62,3.07-58.86-6.25-87.29-.96-2.92-1.77-6.21-4.56-7.99.27,5.01,1.09,10.03,1.47,15.02,1.19,15.74,1.64,31.6,1.46,47.24-.09,7.95.69,22.95-1.92,30.08-.6,1.65-2.32,4.29-4.24,3.22-1.46-1.2-3.62-17.05-4.07-20.07-3.58-24.06-4.44-48.73-10.95-72.25-3.02-10.89-7.28-22.43-15.21-30.58l-.98.51c9.5,30.45,12.27,62.43,16.3,93.97.94,7.36,3.56,17.86,3.68,24.77.01.7-.53,4.32-.86,4.53h-1.84s-35.99-122.02-35.99-122.02c1.05,8.84,3.97,17.3,5.75,26,6.15,30.08,9.96,64.19,12.46,94.86.17,2.07.74,6.1.5,7.88-.09.68-.25,1.43-.98.73Z"/>
      <path class="cls-1" d="M349.52,431.05c-1.31-.15-1.81,1.51-2.2,2.47-3.11,7.57-4.06,18.9-7.53,25.94-.22.44-.45.82-.85,1.11-1.07.02-.78-5.13-.73-6.14.72-16.04,8.3-31.04,10.26-46.84.89-7.18.62-14.14.08-21.34.85.3,1.39,1.17,1.72,1.97,1.57,3.82,2.03,10.13,3.2,14.28.12.15.59-.25.74-.49,1.1-1.7,2.51-7.25,3.6-9.69,6.37-14.2,15.34-20.33,22.45-32.2,5.31-8.87,6.69-22.35,18.5-25.07-3.09,7.42-5.31,16.32-8.76,23.48-3.03,6.27-12.63,14.26-8.18,21.77,2.14,3.62,10.3-.17,13.75-.45s7.39-.1,9.51,3.27c2.58,4.12-.05,5.42-3.83,6.34-5.33,1.29-16.08.93-21.3-.89-3.18-1.11-7.8-6.8-10.51-4.82s-8.12,25.03-8.91,29.48c-.71,3.99-3.4,20.79-.91,23.24,1.47,1.45,6.9-.95,8.62-1.74,6.35-2.93,12.27-8.63,18.87-11.16,9.35-3.57,25.88-.85,36.54-.88,16.17-.04,16.23,1.95,29.01,9.84,3.53,2.18,11.74,7.67,13.43,1.1,2.5-9.71-5.04-37.35-9.5-46.88-1.11-2.38-1.14-4.01-4.3-3.35-1.77.37-5.58,3.93-6.5,1.85-1.31-2.96.82-10.6.21-14.49-.37-2.38-3.05-5.46-3.69-8.12-.12-.48-.8-3.53.51-2.98,14.31,10.1,23.18,25.1,29.06,41.34,1.17.22.59-.53.74-1.21,1-4.63,2.3-9.31,2.45-14.05h1.96c.33,3.38-.82,6.78-1,10.07-1.24,21.86,12.66,42.68,10.85,64.76-.63-.14-1.08-.8-1.36-1.35-4.73-9.27-6.26-24.75-10.6-34.69l-.83-1.37c-.45,12-3.01,23.9-6.16,35.44-3.02,11.07-7.15,23.85-12.13,34.15-21.68,44.85-77.08,44.55-89.29-6.57-1.73-7.23-2.17-15.92-5.42-22.64-1.6-3.32-11.56-16.02-11.56-17.98v-14.52ZM438.63,437.45c-2.65-10.84-12.9-6.47-20.44-5.91-2.18.16-5.21.17-7.4.03-9.06-.57-20.61-5.7-26.81,4.15,16.57,9.77,36.84,4.58,54.65,1.73ZM401.61,467.13c-6.44.42-25.72,2.74-27.73,10.18-1.3,4.81,5.02,10.07,8.4,12.8,18.48,14.96,37.15,16.71,53.91-1.7,3.26-3.58,8.18-9.88,4.67-14.54-5.59-7.43-30.56-7.31-39.25-6.74ZM442.57,492.59c-.42-.39-1.93.97-2.4,1.29-11.8,8.09-20.35,19.28-36.6,15.8-5.23-1.12-9.87-4.97-15.15-5.04,15.64,16.14,46.33,8.31,54.15-12.05Z"/>
      <path class="cls-1" d="M504.74,279.08c.72-.59,1.87-.74,2.78-.61.79,1.97-.28,4.52-1.18,6.39-1.47,3.06-6.65,6.47-2.38,8.77,6.5-1.05,7.69-7.82,11.71-11.74,3.16,3.21-1.64,11.44-4.16,14.04-1.56,1.61-7.04,3.59-5.22,6.17,2.87,1.32,7.31-.46,9.64-2.24,1.44-1.1,3.38-4.41,4.77-4.62,3.39-.51.52,5.09-.43,6.49-3.07,4.51-7.98,6.24-13,7.68-.64,5.13-1.12,10.46-3.24,15.21-5.17,1.3-1.65-6.54-1.41-9.53.92-11.29-6.74-29.5-19.44-30.76-1.21-.12-1.2,0-.11.61,13.95,7.77,14.8,30.94,2.35,40.51-8.59,6.6-18.97,2.52-23.9-6.16-5.96-10.5-4.15-23.87,4.19-32.49-9.39,4.13-18.02,16.63-18.7,26.83-.26,3.97.69,7.63.48,11.56-6.95-3.6-5.63-13.25-4.18-19.7,4.54-20.25,25.42-34.98,45.72-26.02,3.62,1.6,6.22,3.96,9.34,6.26,3.51-.5,4.88-5.46,6.38-6.68Z"/>
      <path class="cls-1" d="M373.16,325.21c-.37-3.73.66-7.36.48-11.07-.48-9.53-6.84-18.07-13.53-24.37l3.56,8.26c5.51,14.38-7.27,37.9-24.32,28.75-14.33-7.69-14.19-34.78.82-41.94.13-.82-1.19-.52-1.73-.51-13.53.46-21.27,19.05-20.41,30.78.12,1.69,2.09,8.8.9,9.54h-2.31c-2.38-4.81-2.43-10.24-3.47-15.38-5.53-.75-13.24-5.38-14.61-11.09-1.79-7.44,5.29,1.1,6.44,1.93,1.56,1.13,8.73,4.08,9.54,1.66.72-2.98-3.24-3.73-5.13-5.58-2.63-2.57-7.81-11.2-4.41-14.29,2.84,2.34,3.52,5.99,6.13,8.63,1.51,1.53,5.28,4.69,6.94,1.97,1.36-2.22-1.29-3.48-2.5-5.43-.75-1.21-4.37-8.17-2.15-8.66,3.02-.67,5.16,6.99,8.89,7.35,3.05-2.38,5.72-4.67,9.34-6.26,19.35-8.52,39.64,4.55,45.1,23.68,1.9,6.65,3.77,18.16-3.57,22.03Z"/>
      <path class="cls-1" d="M445.03,520.65c-.02,13.08-17.79,19.9-28.78,20.7-17.42,1.26-33.26-4.19-42.59-19.47.68-1.13,1.49-.32,2.43.02,7.93,2.81,15.19,7.62,23.65,9.82,17.92,4.67,30.69-1.46,45.28-11.07Z"/>
      <path class="cls-1" d="M412.71,411.68c2,1.85,5.07,2.39,7.71,2.15-10.47,16.92-23.42-3.06-13.05-14.27,2.11,3.59,2.14,9.17,5.34,12.13Z"/>
      <path class="cls-1" d="M422.06,388.54c-6.69-6.78,13.26-15.88,14.97-5.37,1.37,8.41-11.25,9.14-14.97,5.37Z"/>
    </g>
    <g>
      <path class="cls-1" d="M43.17,738.01c-.63-.08-1.21-.4-1.75-.94-.54-.54-1.25-1.55-2.13-3.01-.92-1.42-1.43-2.56-1.54-3.42s-.16-1.51-.16-1.97c0-1.25.17-2.84.5-4.76.29-2.13.69-4.08,1.19-5.86.5-1.77,1.29-4.04,2.38-6.8.25-.67.51-1.39.78-2.16.27-.77.51-1.41.72-1.91.17-.5.4-1.13.69-1.88.29-.75.58-1.46.88-2.13v-.06c.46-1,.82-1.86,1.1-2.57.27-.71.66-1.75,1.16-3.13.04-.13.1-.25.19-.38.71-2.01,2.09-5.17,4.13-9.49,2.05-4.32,4.09-8.45,6.14-12.38.12-.25.29-.54.5-.88.46-.83.88-1.65,1.25-2.44.29-.58.65-1.21,1.06-1.88.33-.63.63-1.17.88-1.63.21-.38.46-.84.75-1.38.29-.54.58-1.11.88-1.69.21-.38.4-.73.56-1.07.33-.71.78-1.59,1.35-2.63.56-1.04,1.08-2,1.54-2.88.83-1.63,1.77-3.51,2.82-5.64,1.04-2.13,1.8-3.72,2.26-4.76.08-.25.19-.52.31-.81.12-.29.21-.56.25-.81.17-.58.25-1.09.25-1.5,0-1.63-.98-2.44-2.95-2.44-.25,0-.52.02-.81.06-1.63.25-4.01.9-7.14,1.94-1.46.5-2.66.93-3.6,1.28-.94.35-1.97.83-3.1,1.41-1.13.59-2.74,1.42-4.83,2.51-4.72,2.55-8.67,4.95-11.84,7.21-1.67,1.17-2.9,2.11-3.7,2.82-.79.71-1.32,1.3-1.57,1.75-.04.12-.12.37-.22.72-.1.36-.2.74-.28,1.16-.08.46-.19.88-.31,1.25s-.25.65-.38.81c-.59,1.04-1.25,1.69-2,1.94s-1.34.38-1.75.38c-.63,0-1.25-.17-1.88-.5-.38-.21-.8-.57-1.28-1.1-.48-.52-.87-1.05-1.16-1.6-.17-.38-.28-.69-.34-.94-.06-.25-.11-.54-.16-.88v-.38c0-.46.06-.88.19-1.25.21-.46.59-.98,1.13-1.57,1.17-1.21,3.14-2.8,5.92-4.76,2.78-1.96,5.92-4.01,9.43-6.14.46-.25,1.01-.58,1.66-1,.65-.42,1.22-.79,1.72-1.13,2.8-1.92,5.51-3.45,8.15-4.57.42-.17.93-.41,1.53-.72s1.18-.62,1.72-.91c2.09-1.29,4.57-2.42,7.46-3.38,2.71-1,4.7-1.62,5.95-1.85,1.25-.23,2.26-.34,3.01-.34s1.46.08,2.13.25c1.34.21,2.77.64,4.29,1.28,1.52.65,2.79,1.35,3.79,2.1.46.33.9.76,1.32,1.28.42.52.73,1.03.94,1.54.29.63.49,1.3.6,2,.1.71.16,1.67.16,2.88s-.07,2.32-.22,3.2c-.15.88-.47,2.13-.97,3.76-1,3.76-2.32,6.96-3.95,9.59-.38.63-.66,1.13-.85,1.5-.19.38-.34.78-.47,1.22-.13.44-.29,1.01-.5,1.72-.33,1.3-.72,2.51-1.16,3.63-.44,1.13-1.1,2.59-1.97,4.39-.42.88-.87,1.84-1.35,2.88-.48,1.04-.89,1.92-1.22,2.63-.08.17-.17.31-.25.44-.33.71-.7,1.48-1.1,2.32-.4.84-.76,1.55-1.1,2.13-.38.71-.86,1.65-1.44,2.82-.59,1.17-1.15,2.32-1.69,3.45-.54,1.09-1.06,2.14-1.57,3.16-.5,1.02-.9,1.77-1.19,2.22-.12.21-.25.44-.38.69-.25.38-.49.76-.72,1.16-.23.4-.43.74-.59,1.03-.25.42-.61.96-1.07,1.63-.46.67-.92,1.34-1.38,2-.5.63-.94,1.23-1.32,1.82-.38.59-.63,1-.75,1.25-.12.25-.22.47-.28.66-.06.19-.12.43-.16.72-.04.29-.06.73-.06,1.32-.04.54-.07.98-.09,1.32-.02.33-.07.64-.16.91-.08.27-.19.64-.31,1.1-.17.38-.35.85-.56,1.41-.21.56-.42,1.08-.63,1.54-.29.63-.63,1.42-1,2.38-.21.46-.4.9-.56,1.32-.21.59-.48,1.22-.81,1.91-.33.69-.63,1.28-.88,1.79-.25.46-.47.9-.66,1.32-.19.42-.32.71-.41.88-.12.29-.19.65-.19,1.07,0,.71.17,1.55.5,2.51.21.59.33,1,.38,1.25.04.25.06.44.06.56v.25c-.21,1.34-1.21,2.9-3.01,4.7-1.46,1.5-2.82,2.26-4.07,2.26-.21,0-.42-.02-.63-.06Z"/>
      <path class="cls-1" d="M99.06,719.91c-1.34-.13-2.54-.58-3.6-1.38-1.06-.79-2.31-2.13-3.73-4.01-.75-1-1.37-1.9-1.85-2.69-.48-.79-.95-1.71-1.41-2.76-.29-.71-.63-1.46-1-2.26l-.63-1.5c-.71-1.46-1.2-2.74-1.47-3.82-.27-1.09-.43-2.38-.47-3.88v-1.25c0-1.92.15-3.82.44-5.7.17-1.04.45-2.44.85-4.2s.78-3.34,1.16-4.76c.38-1.42.6-2.36.66-2.82.06-.46.09-.77.09-.94,0-.42-.08-.73-.25-.94-.21-.33-.44-.55-.69-.66-.25-.1-.56-.16-.94-.16h-.44c-.29,0-.7.03-1.22.09-.52.06-.99.12-1.41.16-1.13.17-2.05.25-2.76.25-.63,0-1.11-.06-1.44-.19-.33-.17-.57-.4-.72-.69-.15-.29-.28-.79-.41-1.5-.17-1.46-.67-2.51-1.5-3.13-1.21-1.04-1.94-1.75-2.19-2.13-.17-.38-.25-.75-.25-1.13s.08-.75.25-1.13c.33-.75.92-1.34,1.75-1.75,1.67-.75,4.41-1.27,8.21-1.57h.19c.84-.04,1.5-.08,2-.13.5-.04,1.01-.11,1.54-.22.52-.1,1.26-.26,2.22-.47,1.25-.29,2.19-.51,2.82-.66.63-.15,1.07-.26,1.35-.34.27-.08.53-.19.78-.31,1.54-.71,2.82-2.15,3.82-4.32.54-1.09,1.04-1.96,1.5-2.63.46-.67,1.13-1.57,2-2.69.5-.63,1.04-1.34,1.63-2.13.58-.79,1.07-1.46,1.44-2,.79-1.25,1.49-2.25,2.1-2.98.61-.73,1.33-1.49,2.16-2.29,1.8-1.8,3.28-2.97,4.45-3.51.42-.21.75-.34,1-.41.25-.06.56-.09.94-.09.5,0,.96.08,1.38.25.42.17.88.48,1.38.94.54.5,1.05.85,1.54,1.03s1.12.3,1.91.34c.96.08,1.65.19,2.07.31.42.12.81.4,1.19.81.42.42.72.88.91,1.38.19.5.28,1.17.28,2,0,1-.18,1.93-.53,2.79-.35.86-1.12,2.16-2.29,3.92-.59.88-1.03,1.57-1.35,2.07-.31.5-.54.92-.69,1.25-.15.33-.26.67-.34,1-.08.29-.12.56-.12.81,0,.75.42,1.3,1.25,1.63.17.04.41.08.72.12.31.04.85.08,1.6.13.75.04,1.88.1,3.38.19,2.26.04,3.91.17,4.95.38,1.04.21,1.73.56,2.07,1.06.21.21.31.5.31.88,0,.75-.52,1.8-1.57,3.13-.75,1.04-1.56,1.79-2.41,2.22-.86.44-2.08.74-3.67.91-.58.08-1.23.19-1.94.31-.71.12-1.34.23-1.88.31-.92.17-1.8.31-2.63.44-.84.12-2.11.27-3.82.44-2.34.21-4.03.67-5.08,1.38-1.3.84-3.01,2.69-5.14,5.58-.33.46-.74,1-1.22,1.63s-.93,1.19-1.35,1.69c-1.13,1.34-1.96,2.58-2.51,3.73-.54,1.15-1.06,2.75-1.57,4.79-1.25,4.8-1.88,8.71-1.88,11.72,0,3.26.69,5.16,2.07,5.7.38.21.81.31,1.32.31.21,0,.44-.02.69-.06.83-.08,2-.38,3.51-.88.79-.25,1.46-.5,2-.75.54-.25,1.13-.57,1.75-.97.63-.4,1.48-.99,2.57-1.79.29-.21.75-.51,1.38-.91.63-.4,1.29-.78,2-1.16.83-.54,1.48-.96,1.94-1.25.46-.29.87-.57,1.22-.85.35-.27.85-.68,1.47-1.22l.25-.25c2.13-1.8,3.93-3.63,5.39-5.51.33-.5.76-1.07,1.28-1.69.52-.63,1.01-1.17,1.47-1.63.42-.5.88-1.02,1.38-1.57.5-.54.9-1,1.19-1.38,1.5-1.84,3.26-2.8,5.26-2.88h.75c.17,0,.29.02.38.06.08.04.19.13.31.25.17.13.28.23.34.31.06.08.1.21.13.38.02.17.03.4.03.69v.38c0,1.42-.63,2.99-1.88,4.7l-2.19,3.07c-.84,1.25-1.63,2.35-2.38,3.29s-1.9,2.29-3.45,4.04l-.38.38c-1.13,1.25-2.03,2.26-2.69,3.01-.67.75-1.36,1.49-2.07,2.22-.71.73-1.71,1.74-3.01,3.04-2.88,2.92-5.15,5.11-6.8,6.55-1.65,1.44-3.29,2.62-4.92,3.54-3.3,1.96-6.29,2.94-8.96,2.94-.46,0-.9-.02-1.32-.06Z"/>
      <path class="cls-1" d="M159.27,678.99c-.54,1.63-.9,2.86-1.07,3.7-.04.38-.06.73-.06,1.06,0,.42.04.84.13,1.25.08.29.18.63.28,1s.22.69.34.94c.21.46.55,1.1,1.03,1.91.48.81.96,1.6,1.44,2.35.48.75.82,1.25,1.03,1.5.21.25.4.41.56.47.17.06.38.12.63.16h.34c.1,0,.24-.03.41-.09s.42-.17.75-.31c.33-.15.79-.34,1.38-.6.58-.25,1.32-.6,2.19-1.06.21-.08.42-.19.63-.31,1.67-.75,3.07-1.54,4.2-2.38,1.13-.83,2.53-2.11,4.2-3.82,1.17-1.17,2.06-2.04,2.66-2.6s1.08-.92,1.41-1.07c.33-.15.73-.22,1.19-.22.25,0,.45.03.6.09.15.06.32.18.53.34.33.21.63.51.88.91.25.4.44.78.56,1.16.08.33.11.77.09,1.32-.02.54-.07,1.04-.16,1.5-.21.84-.66,1.75-1.35,2.76s-1.79,2.32-3.29,3.95c-1.84,2.05-3.45,3.68-4.83,4.89-1.38,1.21-3.03,2.42-4.95,3.63-1.13.71-2.24,1.21-3.32,1.5-1.09.29-2.72.52-4.89.69-1.04.08-2,.12-2.88.12-1.21,0-2.43-.11-3.67-.34-1.23-.23-2.6-.85-4.1-1.85-.96-.63-1.75-1.02-2.38-1.19-.17-.04-.33-.06-.5-.06-.46,0-.9.13-1.32.38-.38.17-.75.46-1.13.88-.38.42-.86,1.06-1.44,1.94-.79,1.25-1.85,2.53-3.16,3.82-1.32,1.29-2.52,2.26-3.6,2.88-.79.42-1.56.72-2.29.91-.73.19-1.74.32-3.04.41-1.17.08-2.03.15-2.57.19h-1.35c-.19,0-.41-.02-.66-.06-2.01-.46-3.01-1.48-3.01-3.07,0-.08.02-.25.06-.5.04-.25.1-.5.19-.75.17-.58.25-1.11.25-1.57,0-.33-.04-.63-.12-.88-.04-.08-.15-.25-.31-.5l-.5-.75c-.5-.63-.84-1.19-1-1.69-.17-.5-.25-1.11-.25-1.82,0-1.88.81-4.49,2.44-7.83.79-1.54,1.81-3.31,3.04-5.29,1.23-1.98,2.33-3.58,3.29-4.79,3.88-4.68,8.58-8.54,14.1-11.59,1.29-.67,2.36-1.34,3.2-2,.83-.67,1.82-1.65,2.94-2.94,1.21-1.34,2.23-2,3.07-2,.29,0,.56.08.81.25.5.29.88.94,1.13,1.94.17.75.33,1.33.5,1.72.17.4.35.78.56,1.16.17.25.34.53.53.85.19.31.34.62.47.91.38.67.56,1.44.56,2.32,0,.25-.04.74-.12,1.47-.08.73-.52,2.31-1.32,4.73ZM143.04,684.76h-.44c-1.29,0-2.22.34-2.79,1.03-.56.69-.91,1.51-1.03,2.47-.04.67-.06,1.25-.06,1.75v4.04c0,.48.06.95.19,1.41.12.46.35.69.69.69.38,0,.93-.19,1.66-.56.73-.38,1.4-.83,2-1.38.6-.54.91-1.04.91-1.5,0-.33.17-.9.5-1.69.29-.79.54-1.65.75-2.57.08-.38.13-.73.13-1.06,0-.5-.12-1.03-.34-1.6-.23-.56-.95-.91-2.16-1.03Z"/>
      <path class="cls-1" d="M185.15,717.02c-2-.42-3.61-1.32-4.83-2.69-.46-.46-.94-1.16-1.44-2.1-.5-.94-1.25-2.56-2.26-4.86-1.63-3.88-2.61-6.43-2.95-7.64-.38-1.5-.56-3.2-.56-5.08s.17-3.84.5-6.02c.29-2.09.61-3.83.94-5.23.33-1.4.81-2.98,1.44-4.73,1.5-4.72,3.45-8.98,5.83-12.78.42-.67.85-1.39,1.29-2.16.44-.77.8-1.41,1.1-1.91,1.09-2.09,2.26-3.95,3.51-5.58,1.5-2.09,2.66-3.64,3.48-4.67.82-1.02,1.49-1.79,2.04-2.29.54-.5,1.19-1,1.94-1.5.46-.29.82-.54,1.1-.75.27-.21.55-.5.85-.88.29-.38.71-.96,1.25-1.75,1.17-1.54,2.84-2.78,5.01-3.7.58-.21,1.03-.4,1.35-.56.31-.17.56-.34.75-.53.19-.19.41-.47.66-.85.21-.29.44-.58.69-.88.25-.29.46-.5.63-.63,1-.75,2.15-1.13,3.45-1.13.5,0,1.04.06,1.63.19.63.08,1.59.18,2.88.28,1.29.1,2.46.16,3.51.16,1.34,0,2.35.14,3.04.41.69.27,1.2.76,1.54,1.47.12.21.21.4.25.56.04.17.07.35.09.56.02.21,0,.5-.03.88,0,.88-.08,1.67-.25,2.38-.25.92-.61,2.03-1.07,3.32-.46,1.3-.86,2.32-1.19,3.07-.38.75-.91,1.65-1.6,2.69-.69,1.04-1.43,2.03-2.22,2.94-.33.42-.71.89-1.13,1.41-.42.52-.77.97-1.06,1.35-.29.38-.61.78-.94,1.22-.33.44-.61.78-.81,1.03-2.76,3.26-5.29,6.04-7.58,8.33-.79.84-1.59,1.67-2.38,2.51-.79.84-1.4,1.46-1.82,1.88-2.21,2.42-4.14,4.34-5.76,5.76-1.92,1.67-3.27,3-4.04,3.98-.77.98-1.43,2.25-1.97,3.79-.38,1.04-.67,2.02-.88,2.91-.21.9-.4,1.87-.56,2.91-.04.59-.12,1.17-.22,1.75-.1.59-.2,1.04-.28,1.38-.21.79-.31,1.59-.31,2.38s.1,1.48.31,2.07c.21.5.5.95.88,1.35.38.4.79.68,1.25.85.29.13.85.27,1.66.44.81.17,1.64.31,2.47.44.84.13,1.42.19,1.75.19.88,0,1.86-.27,2.95-.81.33-.17.66-.34.97-.53s.72-.47,1.22-.85,1.19-.92,2.07-1.63c.67-.5,1.33-.99,1.97-1.47.65-.48,1.14-.82,1.47-1.03.29-.25.67-.56,1.13-.94s.88-.73,1.25-1.07c.67-.63,1.25-1.12,1.75-1.47.5-.35,1.23-.85,2.19-1.47,1.09-.67,2.27-1.54,3.54-2.63,1.27-1.09,2.91-2.59,4.92-4.51.58-.58,1.15-1.13,1.69-1.63.54-.5.92-.81,1.13-.94.67-.42,1.24-.67,1.72-.75.48-.08.82-.12,1.03-.12.42,0,.81.08,1.19.25.63.29.94.79.94,1.5,0,.63-.23,1.4-.69,2.32-.59,1.25-1.79,2.87-3.6,4.86-1.82,1.98-4.73,4.92-8.74,8.8-2.13,2.05-3.84,3.65-5.14,4.79-1.3,1.15-2.61,2.25-3.95,3.29-.54.38-1.17.86-1.88,1.44-.71.59-1.36,1.11-1.94,1.57-1.04.88-2.02,1.62-2.91,2.22-.9.61-1.95,1.24-3.16,1.91-2.97,1.59-5.49,2.59-7.58,3.01-.5.08-1.04.13-1.63.13h-.56c-.84,0-1.59-.06-2.26-.19Z"/>
      <path class="cls-1" d="M232.15,712.07s-.19-.04-.44-.12c-.84-.17-2.13-.46-3.88-.88-2.59-.67-4.48-1.26-5.67-1.79-1.19-.52-2.14-1.2-2.85-2.04-1.75-1.84-2.63-4.95-2.63-9.34,0-1.63.23-3.22.69-4.76.46-1.54,1.23-3.42,2.32-5.64,1.46-3.01,3.09-5.83,4.89-8.46,1.42-2.09,2.64-3.63,3.67-4.64,1.02-1,2.26-1.84,3.73-2.51,1.59-.83,2.97-1.25,4.14-1.25.21,0,.4.02.56.06,1.29.13,2.61.88,3.95,2.26.38.33.65.63.81.88.17.25.31.5.44.75.17.42.25.84.25,1.25,0,.38-.06.77-.19,1.19-.25.92-.86,2.23-1.82,3.95-.67,1.13-1.48,2.66-2.44,4.61-.96,1.94-1.75,3.62-2.38,5.04-.84,1.92-1.34,3.26-1.5,4.01-.17.75-.25,1.34-.25,1.75,0,.38.04.71.13,1,.38,1.04,1.06,1.73,2.07,2.07.5.13,1.07.19,1.69.19,1.13,0,2.42-.23,3.88-.69.79-.29,1.81-.76,3.04-1.41,1.23-.65,2.2-1.2,2.91-1.66,2.67-1.96,5.91-4.78,9.71-8.46,1.38-1.29,2.46-2.29,3.26-2.98.79-.69,1.63-1.31,2.51-1.85,1.75-1.17,3.09-1.75,4.01-1.75.29,0,.52.02.69.06.17.04.31.1.44.19.83.67,1.27,1.78,1.32,3.32,0,.29-.01.52-.03.69-.02.17-.06.36-.12.56-.06.21-.18.48-.34.81-.33.67-.79,1.36-1.38,2.07-.58.71-1.55,1.78-2.88,3.2-1.29,1.42-2.46,2.64-3.51,3.67-1.04,1.02-2.3,2.2-3.76,3.54-.63.59-1.33,1.26-2.1,2.04s-1.45,1.45-2.04,2.04c-1.5,1.55-2.82,2.8-3.95,3.76-1.13.96-2.3,1.86-3.51,2.69-1.38.92-2.57,1.55-3.57,1.88-1,.33-2.34.54-4.01.63-1.04.08-2.17.13-3.38.13s-1.98-.02-2.44-.06ZM246.74,657.19c-.33-.04-.72-.08-1.16-.12-.44-.04-.85-.06-1.22-.06-3.09,0-4.87-.67-5.33-2-.13-.17-.21-.37-.25-.6-.04-.23-.06-.53-.06-.91,0-.75.19-1.49.56-2.22.38-.73,1.09-1.74,2.13-3.04.33-.42.71-.91,1.13-1.47.42-.56.79-1.07,1.13-1.53.84-1.25,1.59-2.16,2.26-2.73.67-.56,1.36-.87,2.07-.91h.31c.54,0,1.02.19,1.44.56.5.42,1.17,1.29,2,2.63.25.38.55.8.91,1.28.35.48.68.91.97,1.28.67.75,1.11,1.34,1.32,1.75.21.42.31.88.31,1.38,0,1.46-.98,3.09-2.94,4.89-.92.88-1.68,1.42-2.29,1.63-.61.21-1.2.31-1.79.31-.46,0-.96-.04-1.5-.13Z"/>
      <path class="cls-1" d="M289.35,678.99c-.54,1.63-.9,2.86-1.07,3.7-.04.38-.06.73-.06,1.06,0,.42.04.84.13,1.25.08.29.18.63.28,1s.22.69.34.94c.21.46.55,1.1,1.03,1.91.48.81.96,1.6,1.44,2.35.48.75.82,1.25,1.03,1.5.21.25.4.41.56.47.17.06.38.12.63.16h.34c.1,0,.24-.03.41-.09s.42-.17.75-.31c.33-.15.79-.34,1.38-.6.58-.25,1.32-.6,2.19-1.06.21-.08.42-.19.63-.31,1.67-.75,3.07-1.54,4.2-2.38,1.13-.83,2.53-2.11,4.2-3.82,1.17-1.17,2.06-2.04,2.66-2.6s1.08-.92,1.41-1.07c.33-.15.73-.22,1.19-.22.25,0,.45.03.6.09.15.06.32.18.53.34.33.21.63.51.88.91.25.4.44.78.56,1.16.08.33.11.77.09,1.32-.02.54-.07,1.04-.16,1.5-.21.84-.66,1.75-1.35,2.76s-1.79,2.32-3.29,3.95c-1.84,2.05-3.45,3.68-4.83,4.89-1.38,1.21-3.03,2.42-4.95,3.63-1.13.71-2.24,1.21-3.32,1.5-1.09.29-2.72.52-4.89.69-1.04.08-2,.12-2.88.12-1.21,0-2.43-.11-3.67-.34-1.23-.23-2.6-.85-4.1-1.85-.96-.63-1.75-1.02-2.38-1.19-.17-.04-.33-.06-.5-.06-.46,0-.9.13-1.32.38-.38.17-.75.46-1.13.88-.38.42-.86,1.06-1.44,1.94-.79,1.25-1.85,2.53-3.16,3.82-1.32,1.29-2.52,2.26-3.6,2.88-.79.42-1.56.72-2.29.91-.73.19-1.74.32-3.04.41-1.17.08-2.03.15-2.57.19h-1.35c-.19,0-.41-.02-.66-.06-2.01-.46-3.01-1.48-3.01-3.07,0-.08.02-.25.06-.5.04-.25.1-.5.19-.75.17-.58.25-1.11.25-1.57,0-.33-.04-.63-.12-.88-.04-.08-.15-.25-.31-.5l-.5-.75c-.5-.63-.84-1.19-1-1.69-.17-.5-.25-1.11-.25-1.82,0-1.88.81-4.49,2.44-7.83.79-1.54,1.81-3.31,3.04-5.29,1.23-1.98,2.33-3.58,3.29-4.79,3.88-4.68,8.58-8.54,14.1-11.59,1.29-.67,2.36-1.34,3.2-2,.83-.67,1.82-1.65,2.94-2.94,1.21-1.34,2.23-2,3.07-2,.29,0,.56.08.81.25.5.29.88.94,1.13,1.94.17.75.33,1.33.5,1.72.17.4.35.78.56,1.16.17.25.34.53.53.85.19.31.34.62.47.91.38.67.56,1.44.56,2.32,0,.25-.04.74-.12,1.47-.08.73-.52,2.31-1.32,4.73ZM273.12,684.76h-.44c-1.29,0-2.22.34-2.79,1.03-.56.69-.91,1.51-1.03,2.47-.04.67-.06,1.25-.06,1.75v4.04c0,.48.06.95.19,1.41.12.46.35.69.69.69.38,0,.93-.19,1.66-.56.73-.38,1.4-.83,2-1.38.6-.54.91-1.04.91-1.5,0-.33.17-.9.5-1.69.29-.79.54-1.65.75-2.57.08-.38.13-.73.13-1.06,0-.5-.12-1.03-.34-1.6-.23-.56-.95-.91-2.16-1.03Z"/>
      <path class="cls-1" d="M349.06,710.07c-.33,0-.68,0-1.03-.03-.36-.02-.62,0-.78.03h-.38c-.38,0-.79-.04-1.25-.13-.67-.08-1.27-.19-1.82-.31-.25-.13-.61-.29-1.07-.5-.46-.21-.92-.42-1.38-.63-2.76-1.29-4.7-3.13-5.83-5.51-.58-1.17-.9-2.09-.94-2.76-.04-.67-.06-1.11-.06-1.32,0-1.09.17-2.44.5-4.07.42-2.09.88-3.98,1.38-5.67.5-1.69,1.17-3.62,2-5.8.42-1.04.76-1.87,1.03-2.47.27-.61.58-1.2.94-1.79.36-.58.87-1.38,1.54-2.38.42-.67.85-1.36,1.28-2.07.44-.71.76-1.27.97-1.69.46-.75.88-1.38,1.25-1.88s.86-1,1.44-1.5c1.29-1.25,2.82-2.44,4.57-3.57,1.75-1.13,3.3-1.94,4.64-2.44.67-.21,1.19-.31,1.57-.31h.69c.54,0,.96.08,1.25.25.84.46,1.54,1.27,2.1,2.44.56,1.17.89,2.47.97,3.89.04.29.06.61.06.94,0,.46-.04.92-.13,1.38-.08.79-.31,1.84-.69,3.13-1.25,5.51-3.42,9.69-6.52,12.53-1.92,2.01-4.45,3.55-7.58,4.64-.92.29-1.59.57-2,.85-.42.27-.73.62-.94,1.03-.21.46-.31.94-.31,1.44,0,.46.1.94.31,1.44.5.96,1.38,1.75,2.63,2.38.83.46,1.75.69,2.76.69s2.21-.21,3.76-.63c1.09-.25,2.09-.56,3.01-.94.92-.38,2.15-.96,3.7-1.75,1.04-.58,1.89-1.06,2.54-1.44.65-.38,1.33-.8,2.04-1.28.71-.48,1.63-1.14,2.76-1.97,1.38-1.04,2.56-2.03,3.54-2.94.98-.92,2.22-2.23,3.73-3.95.67-.75,1.27-1.42,1.82-2.01.54-.58.9-.96,1.06-1.13,1-.83,1.84-1.25,2.51-1.25h.12c.92,0,1.52.75,1.82,2.26.08.33.12.67.12,1,0,.5-.08,1.02-.25,1.57-.29.92-.86,2.03-1.69,3.32-.92,1.42-1.79,2.57-2.6,3.45-.81.88-1.79,1.69-2.91,2.44-.38.25-.79.56-1.25.94-.46.38-.84.71-1.13,1-.33.25-.74.57-1.22.97-.48.4-.95.76-1.41,1.1-.42.29-.92.68-1.5,1.16-.58.48-1.09.93-1.5,1.35-.5.42-1.02.83-1.57,1.22-.54.4-1.02.7-1.44.91-.38.25-.89.57-1.54.97-.65.4-1.26.8-1.85,1.22-.96.67-1.77,1.17-2.41,1.5-.65.33-1.41.65-2.29.94-.33.12-.72.28-1.16.47s-.83.37-1.16.53c-.63.33-1.14.56-1.54.69-.4.12-.83.19-1.29.19-.5,0-1.17-.04-2-.13Z"/>
      <path class="cls-1" d="M374.19,724.79c-.12-.04-.25-.13-.38-.25-.12-.12-.25-.27-.38-.44-.12-.17-.21-.38-.25-.63-.04-.25-.08-.67-.12-1.25,0-.84-.09-1.48-.28-1.94-.19-.46-.57-.98-1.16-1.57-.54-.58-.91-1.09-1.1-1.5-.19-.42-.28-.92-.28-1.5,0-.63.18-1.27.53-1.94.36-.67,1.06-1.59,2.1-2.76,1.5-1.88,3.78-4.16,6.83-6.83,1.63-1.5,2.76-2.86,3.38-4.07.29-.58.44-1.17.44-1.75,0-.46-.08-.9-.25-1.32-.5-1.04-1.63-2.05-3.38-3.01-.5-.29-1.07-.6-1.69-.94-.25-.12-.48-.23-.69-.31-.71-.42-1.39-.96-2.04-1.63-.65-.67-1.18-1.36-1.6-2.07-.29-.63-.53-1.2-.72-1.72-.19-.52-.34-1.16-.47-1.91-.08-.25-.17-.58-.25-1-.13-.67-.25-1.32-.38-1.94-.17-.88-.28-1.52-.34-1.94-.06-.42-.09-.75-.09-1v-.38c0-.38.04-.77.13-1.19.42-2.26,1.36-4.39,2.82-6.39.21-.29.66-.78,1.35-1.47.69-.69,1.45-1.43,2.29-2.22.79-.79,1.43-1.41,1.91-1.85s.86-.75,1.13-.94c.27-.19.55-.37.85-.53.29-.12.53-.22.72-.28.19-.06.4-.1.63-.13.23-.02.55-.03.97-.03s.75.01,1,.03c.25.02.52.06.81.13.29.06.65.18,1.07.34.46.17.96.33,1.5.5.54.17,1.02.29,1.44.38.38.13.73.24,1.07.34.33.1.58.2.75.28.83.46,1.4,1.02,1.69,1.69.29.67.44,1.25.44,1.75,0,.38-.06.77-.19,1.19-.21.79-.84,1.59-1.88,2.38-.21.17-.49.41-.85.72-.36.31-.74.66-1.16,1.03-.12.08-.25.19-.38.31-.75.79-1.38,1.35-1.88,1.66-.5.31-1.19.6-2.07.85-1.25.33-1.88.94-1.88,1.82,0,1.34,1.19,2.55,3.57,3.63,1.04.54,2.26,1.2,3.63,1.97,1.38.77,2.4,1.37,3.07,1.79.25.12.53.29.85.5.31.21.64.4.97.56.04.04.1.08.19.13.33.21.67.41,1,.6.33.19.61.32.81.41.54.17,1.09.25,1.63.25s1.11-.08,1.69-.25c.71-.25,1.66-.67,2.85-1.25,1.19-.58,2.41-1.25,3.67-2.01l.06-.06c.67-.38,1.34-.75,2-1.13.67-.38,1.19-.65,1.57-.81.58-.29,1.37-.64,2.35-1.03.98-.4,1.93-.76,2.85-1.1.92-.33,1.59-.54,2-.63.58-.13,1.19-.19,1.82-.19h.5c.83.04,1.46.17,1.88.38.54.29.81.69.81,1.19,0,.42-.17.9-.5,1.44-.42.59-1.19,1.43-2.32,2.54-1.13,1.11-2.3,2.18-3.51,3.23-1.21,1.04-2.17,1.8-2.88,2.26-.25.12-.65.32-1.19.6-.54.27-1.13.55-1.75.85-5.05,2.34-9.23,5.41-12.53,9.21-.42.5-.88,1.04-1.38,1.63-.5.59-.92,1.06-1.25,1.44-.38.38-.79.84-1.25,1.38-.46.54-.88,1.07-1.25,1.57-.38.5-.81,1.06-1.32,1.66-.5.61-.96,1.14-1.38,1.6-.38.46-.8,1.01-1.29,1.66-.48.65-.89,1.22-1.22,1.72-1.34,1.88-2.69,3.34-4.07,4.39-.5.38-1.25.88-2.26,1.5s-2,1.23-2.98,1.82c-.98.59-1.7,1-2.16,1.25-.96.42-1.75.63-2.38.63-.25,0-.46-.02-.63-.06Z"/>
      <path class="cls-1" d="M445.81,713.7c-1.38-.21-2.63-.67-3.76-1.38-1.13-.71-1.96-1.52-2.51-2.44-.29-.58-.5-1.2-.63-1.85-.13-.65-.19-1.51-.19-2.6,0-.5.02-1.02.06-1.57.04-.54.08-.96.13-1.25.33-1.96,1.08-4.3,2.22-7.02,1.15-2.71,2.52-5.35,4.1-7.89.46-.71.9-1.35,1.32-1.91.42-.56,1.04-1.37,1.88-2.41.42-.5.86-1.04,1.32-1.63.42-.54.77-.98,1.06-1.32.96-1.38,1.99-2.63,3.1-3.76,1.11-1.13,2.66-2.57,4.67-4.32.75-.63,1.78-1.39,3.07-2.29,1.29-.9,2.53-1.7,3.7-2.41,1.25-.71,2.17-1.31,2.76-1.79.58-.48,1.02-1.05,1.32-1.72.29-.67.61-1.61.94-2.82.63-2.38,1.3-4.69,2.04-6.92.73-2.23,1.3-3.87,1.72-4.92,1.46-3.38,3.15-6.24,5.08-8.58,3.47-4.43,5.85-7.06,7.14-7.89,1.09-.67,2.09-1.18,3.01-1.54.92-.35,1.67-.53,2.25-.53h.31c1.34.04,2.21,1,2.63,2.88l.12.38c.08.33.2.73.34,1.19.15.46.28.88.41,1.25.42,1.3.68,2.31.78,3.04.1.73.16,1.54.16,2.41v.88c0,.63-.03,1.26-.09,1.91-.06.65-.14,1.16-.22,1.54-.08.63-.26,1.58-.53,2.85-.27,1.27-.54,2.56-.82,3.85-.27,1.3-.47,2.26-.59,2.88-.96,3.59-2.36,7.39-4.2,11.4-.33.71-.67,1.45-1,2.22-.33.77-.59,1.39-.75,1.85-.71,1.96-2.3,5.28-4.76,9.96-.46.88-.88,1.69-1.25,2.44s-.67,1.32-.88,1.69c-.04.08-.08.15-.13.19-.33.88-.5,1.71-.5,2.51,0,.29.02.59.06.88.38,3.09,2.34,5.49,5.89,7.21,1.08.59,2.13.88,3.13.88h.5c1.17-.17,2.82-.79,4.95-1.88.17-.08.35-.17.56-.25,1.17-.58,2.12-1.12,2.85-1.6.73-.48,1.59-1.24,2.57-2.29.98-1.04,2.43-2.69,4.35-4.95.38-.42.79-.88,1.25-1.38.88-1.04,1.57-1.83,2.07-2.35.5-.52.89-.89,1.16-1.1.27-.21.53-.35.78-.44.21-.04.4-.06.56-.06.54,0,1.07.19,1.57.56.67.5,1.07,1.19,1.19,2.07v.31c0,.54-.15,1.17-.44,1.88-.38.84-1.13,2.09-2.26,3.76-1.21,1.88-2.19,3.21-2.94,3.98-.75.77-1.75,1.58-3.01,2.41-.5.33-1.03.71-1.6,1.13-.56.42-1.01.79-1.35,1.13-1.17,1.04-2.08,1.83-2.73,2.35-.65.52-1.39,1.03-2.22,1.54-1.25.75-2.63,1.46-4.14,2.13-1.5.67-2.86,1.17-4.07,1.5-.46.13-.92.22-1.38.28-.46.06-1.02.09-1.69.09-.38.04-.71.06-1,.06-.84,0-1.55-.08-2.13-.25-.84-.17-1.75-.5-2.76-1-.71-.33-1.39-.75-2.04-1.25-.65-.5-1.43-1.17-2.35-2.01-1.04-.96-1.82-1.59-2.32-1.88-.5-.29-.94-.44-1.32-.44-.12,0-.25.02-.38.06-.5.08-.96.3-1.38.66-.42.36-.98,1.01-1.69,1.97-.25.33-.55.71-.91,1.13-.36.42-.68.77-.97,1.07-.63.59-1.48,1.36-2.57,2.32-1.09.96-1.92,1.65-2.51,2.07-.75.5-2,1.16-3.73,1.97s-3.25,1.43-4.54,1.85c-3.01.92-5.37,1.38-7.08,1.38-.29,0-.56-.02-.82-.06ZM452.39,703.93c2.13-.67,5.01-2.61,8.65-5.83,2.92-2.55,5.16-5.08,6.7-7.58.83-1.25,1.27-2.51,1.32-3.76v-.69c0-.58-.02-1.38-.06-2.38-.08-1.5-.21-3.05-.38-4.64-.25-1.84-.92-2.76-2-2.76-.38,0-.81.12-1.32.38-.63.38-1.49,1.02-2.6,1.94-1.11.92-2.14,1.88-3.1,2.88-.67.71-1.21,1.29-1.63,1.75-.42.46-.8.97-1.16,1.54-.36.56-.83,1.31-1.41,2.22-.29.5-.61,1-.94,1.5-.54.96-.98,1.69-1.32,2.19-2.67,4.43-4.01,7.83-4.01,10.21,0,1.04.25,1.9.75,2.57.38.42.86.63,1.44.63.33,0,.69-.06,1.06-.19ZM481.46,664.77c1.17-1.17,2.26-3.72,3.26-7.64.5-2.09.75-3.61.75-4.57,0-.75-.17-1.13-.5-1.13-.75,0-1.88,2.28-3.38,6.83-.5,1.5-.8,2.69-.91,3.57-.1.88-.16,1.5-.16,1.88,0,.54.08.92.25,1.13.12.17.25.25.38.25.08,0,.19-.1.31-.31Z"/>
      <path class="cls-1" d="M516.11,710.07c-.33,0-.68,0-1.03-.03-.36-.02-.62,0-.78.03h-.38c-.38,0-.79-.04-1.25-.13-.67-.08-1.27-.19-1.82-.31-.25-.13-.61-.29-1.07-.5-.46-.21-.92-.42-1.38-.63-2.76-1.29-4.7-3.13-5.83-5.51-.58-1.17-.9-2.09-.94-2.76-.04-.67-.06-1.11-.06-1.32,0-1.09.17-2.44.5-4.07.42-2.09.88-3.98,1.38-5.67.5-1.69,1.17-3.62,2-5.8.42-1.04.76-1.87,1.03-2.47.27-.61.58-1.2.94-1.79.36-.58.87-1.38,1.54-2.38.42-.67.85-1.36,1.28-2.07.44-.71.76-1.27.97-1.69.46-.75.88-1.38,1.25-1.88s.86-1,1.44-1.5c1.29-1.25,2.82-2.44,4.57-3.57,1.75-1.13,3.3-1.94,4.64-2.44.67-.21,1.19-.31,1.57-.31h.69c.54,0,.96.08,1.25.25.84.46,1.54,1.27,2.1,2.44.56,1.17.89,2.47.97,3.89.04.29.06.61.06.94,0,.46-.04.92-.13,1.38-.08.79-.31,1.84-.69,3.13-1.25,5.51-3.42,9.69-6.52,12.53-1.92,2.01-4.45,3.55-7.58,4.64-.92.29-1.59.57-2,.85-.42.27-.73.62-.94,1.03-.21.46-.31.94-.31,1.44,0,.46.1.94.31,1.44.5.96,1.38,1.75,2.63,2.38.83.46,1.75.69,2.76.69s2.21-.21,3.76-.63c1.09-.25,2.09-.56,3.01-.94.92-.38,2.15-.96,3.7-1.75,1.04-.58,1.89-1.06,2.54-1.44.65-.38,1.33-.8,2.04-1.28.71-.48,1.63-1.14,2.76-1.97,1.38-1.04,2.56-2.03,3.54-2.94.98-.92,2.22-2.23,3.73-3.95.67-.75,1.27-1.42,1.82-2.01.54-.58.9-.96,1.06-1.13,1-.83,1.84-1.25,2.51-1.25h.12c.92,0,1.52.75,1.82,2.26.08.33.12.67.12,1,0,.5-.08,1.02-.25,1.57-.29.92-.86,2.03-1.69,3.32-.92,1.42-1.79,2.57-2.6,3.45-.81.88-1.79,1.69-2.91,2.44-.38.25-.79.56-1.25.94-.46.38-.84.71-1.13,1-.33.25-.74.57-1.22.97-.48.4-.95.76-1.41,1.1-.42.29-.92.68-1.5,1.16-.58.48-1.09.93-1.5,1.35-.5.42-1.02.83-1.57,1.22-.54.4-1.02.7-1.44.91-.38.25-.89.57-1.54.97-.65.4-1.26.8-1.85,1.22-.96.67-1.77,1.17-2.41,1.5-.65.33-1.41.65-2.29.94-.33.12-.72.28-1.16.47s-.83.37-1.16.53c-.63.33-1.14.56-1.54.69-.4.12-.83.19-1.29.19-.5,0-1.17-.04-2-.13Z"/>
      <path class="cls-1" d="M587.54,719.91c-1.34-.13-2.54-.58-3.6-1.38-1.06-.79-2.31-2.13-3.73-4.01-.75-1-1.37-1.9-1.85-2.69-.48-.79-.95-1.71-1.41-2.76-.29-.71-.63-1.46-1-2.26l-.63-1.5c-.71-1.46-1.2-2.74-1.47-3.82-.27-1.09-.43-2.38-.47-3.88v-1.25c0-1.92.15-3.82.44-5.7.17-1.04.45-2.44.85-4.2s.78-3.34,1.16-4.76c.38-1.42.6-2.36.66-2.82.06-.46.09-.77.09-.94,0-.42-.08-.73-.25-.94-.21-.33-.44-.55-.69-.66-.25-.1-.56-.16-.94-.16h-.44c-.29,0-.7.03-1.22.09-.52.06-.99.12-1.41.16-1.13.17-2.05.25-2.76.25-.63,0-1.11-.06-1.44-.19-.33-.17-.57-.4-.72-.69-.15-.29-.28-.79-.41-1.5-.17-1.46-.67-2.51-1.5-3.13-1.21-1.04-1.94-1.75-2.19-2.13-.17-.38-.25-.75-.25-1.13s.08-.75.25-1.13c.33-.75.92-1.34,1.75-1.75,1.67-.75,4.41-1.27,8.21-1.57h.19c.84-.04,1.5-.08,2-.13.5-.04,1.01-.11,1.54-.22.52-.1,1.26-.26,2.22-.47,1.25-.29,2.19-.51,2.82-.66.63-.15,1.07-.26,1.35-.34.27-.08.53-.19.78-.31,1.54-.71,2.82-2.15,3.82-4.32.54-1.09,1.04-1.96,1.5-2.63.46-.67,1.13-1.57,2-2.69.5-.63,1.04-1.34,1.63-2.13.58-.79,1.07-1.46,1.44-2,.79-1.25,1.49-2.25,2.1-2.98.61-.73,1.33-1.49,2.16-2.29,1.8-1.8,3.28-2.97,4.45-3.51.42-.21.75-.34,1-.41.25-.06.56-.09.94-.09.5,0,.96.08,1.38.25.42.17.88.48,1.38.94.54.5,1.05.85,1.54,1.03s1.12.3,1.91.34c.96.08,1.65.19,2.07.31.42.12.81.4,1.19.81.42.42.72.88.91,1.38.19.5.28,1.17.28,2,0,1-.18,1.93-.53,2.79-.35.86-1.12,2.16-2.29,3.92-.59.88-1.03,1.57-1.35,2.07-.31.5-.54.92-.69,1.25-.15.33-.26.67-.34,1-.08.29-.12.56-.12.81,0,.75.42,1.3,1.25,1.63.17.04.41.08.72.12.31.04.85.08,1.6.13.75.04,1.88.1,3.38.19,2.26.04,3.91.17,4.95.38,1.04.21,1.73.56,2.07,1.06.21.21.31.5.31.88,0,.75-.52,1.8-1.57,3.13-.75,1.04-1.56,1.79-2.41,2.22-.86.44-2.08.74-3.67.91-.58.08-1.23.19-1.94.31-.71.12-1.34.23-1.88.31-.92.17-1.8.31-2.63.44-.84.12-2.11.27-3.82.44-2.34.21-4.03.67-5.08,1.38-1.3.84-3.01,2.69-5.14,5.58-.33.46-.74,1-1.22,1.63s-.93,1.19-1.35,1.69c-1.13,1.34-1.96,2.58-2.51,3.73-.54,1.15-1.06,2.75-1.57,4.79-1.25,4.8-1.88,8.71-1.88,11.72,0,3.26.69,5.16,2.07,5.7.38.21.81.31,1.32.31.21,0,.44-.02.69-.06.83-.08,2-.38,3.51-.88.79-.25,1.46-.5,2-.75.54-.25,1.13-.57,1.75-.97.63-.4,1.48-.99,2.57-1.79.29-.21.75-.51,1.38-.91.63-.4,1.29-.78,2-1.16.83-.54,1.48-.96,1.94-1.25.46-.29.87-.57,1.22-.85.35-.27.85-.68,1.47-1.22l.25-.25c2.13-1.8,3.93-3.63,5.39-5.51.33-.5.76-1.07,1.28-1.69.52-.63,1.01-1.17,1.47-1.63.42-.5.88-1.02,1.38-1.57.5-.54.9-1,1.19-1.38,1.5-1.84,3.26-2.8,5.26-2.88h.75c.17,0,.29.02.38.06.08.04.19.13.31.25.17.13.28.23.34.31.06.08.1.21.13.38.02.17.03.4.03.69v.38c0,1.42-.63,2.99-1.88,4.7l-2.19,3.07c-.84,1.25-1.63,2.35-2.38,3.29s-1.9,2.29-3.45,4.04l-.38.38c-1.13,1.25-2.03,2.26-2.69,3.01-.67.75-1.36,1.49-2.07,2.22-.71.73-1.71,1.74-3.01,3.04-2.88,2.92-5.15,5.11-6.8,6.55-1.65,1.44-3.29,2.62-4.92,3.54-3.3,1.96-6.29,2.94-8.96,2.94-.46,0-.9-.02-1.32-.06Z"/>
      <path class="cls-1" d="M629.27,712.39c-.21-.04-.53-.13-.97-.25-.44-.13-.87-.27-1.28-.44-.38-.08-.81-.21-1.32-.38-.88-.29-1.73-.56-2.57-.81-4.85-1.42-7.48-3.36-7.9-5.83-.12-.42-.19-.86-.19-1.32v-.38c0-.58.08-1.42.25-2.51.13-.75.21-1.44.25-2.07.04-.63.08-1.46.12-2.51,0-.79,0-1.4-.03-1.82-.02-.42-.04-.75-.06-1-.02-.25-.07-.52-.16-.81-.25-.79-.38-1.35-.38-1.66v-.6c0-.46.08-.94.25-1.44.13-.25.25-.57.38-.97.13-.4.23-.76.31-1.1.04-.12.08-.27.13-.44.17-.54.27-.96.31-1.25.08-.21.2-.47.34-.78.15-.31.3-.62.47-.91.25-.38.56-.92.94-1.63.25-.46.48-.88.69-1.25.88-1.67,1.68-3.01,2.41-4.01.73-1,1.64-2.05,2.73-3.13,2.38-2.46,4.64-4.2,6.77-5.2.96-.46,1.92-.69,2.88-.69.33,0,.65.02.94.06.54.04,1.04.15,1.5.31.46.17,1.11.46,1.94.88.5.29.92.51,1.25.66.33.15.7.27,1.1.38.4.1.95.22,1.66.34.92.21,1.64.43,2.16.66.52.23.99.55,1.41.97.38.33.71.76,1,1.28.29.52.63,1.28,1,2.29,1.25,3.38,1.88,6.58,1.88,9.59,0,.59-.02,1.17-.06,1.75-.13,1.71-.36,3.27-.69,4.67-.33,1.4-.81,2.96-1.44,4.67-1.84,4.85-4.39,8.94-7.64,12.28-3.01,2.97-6.1,4.45-9.27,4.45-.38,0-.75-.02-1.13-.06ZM630.15,700.73c.83-.42,1.93-1.16,3.29-2.22,1.36-1.06,2.48-2.08,3.35-3.04,1.92-2.09,3.24-4.18,3.95-6.27.67-2.17,1-3.93,1-5.26,0-.5-.04-.94-.13-1.32-.38-.88-1.11-1.59-2.19-2.13-.38-.17-.71-.28-1-.34-.29-.06-.67-.11-1.13-.16h-.31c-1.8,0-3.3.67-4.51,2-.17.17-.34.37-.53.6-.19.23-.34.45-.47.66-.21.33-.66,1.14-1.35,2.41-.69,1.27-1.38,2.59-2.07,3.95-.69,1.36-1.16,2.31-1.41,2.85-.71,1.8-1.07,3.38-1.07,4.76,0,1.09.23,2.03.69,2.82.54.75,1.23,1.13,2.07,1.13.54,0,1.15-.15,1.82-.44Z"/>
      <path class="cls-1" d="M656.59,713.7c-1.38-.21-2.63-.67-3.76-1.38-1.13-.71-1.96-1.52-2.51-2.44-.29-.58-.5-1.2-.63-1.85-.13-.65-.19-1.51-.19-2.6,0-.5.02-1.02.06-1.57.04-.54.08-.96.13-1.25.33-1.96,1.08-4.3,2.22-7.02,1.15-2.71,2.52-5.35,4.1-7.89.46-.71.9-1.35,1.32-1.91.42-.56,1.04-1.37,1.88-2.41.42-.5.86-1.04,1.32-1.63.42-.54.77-.98,1.06-1.32.96-1.38,1.99-2.63,3.1-3.76,1.11-1.13,2.66-2.57,4.67-4.32.75-.63,1.78-1.39,3.07-2.29,1.29-.9,2.53-1.7,3.7-2.41,1.25-.71,2.17-1.31,2.76-1.79.58-.48,1.02-1.05,1.32-1.72.29-.67.61-1.61.94-2.82.63-2.38,1.3-4.69,2.04-6.92.73-2.23,1.3-3.87,1.72-4.92,1.46-3.38,3.15-6.24,5.08-8.58,3.47-4.43,5.85-7.06,7.14-7.89,1.09-.67,2.09-1.18,3.01-1.54.92-.35,1.67-.53,2.25-.53h.31c1.34.04,2.21,1,2.63,2.88l.12.38c.08.33.2.73.34,1.19.15.46.28.88.41,1.25.42,1.3.68,2.31.78,3.04.1.73.16,1.54.16,2.41v.88c0,.63-.03,1.26-.09,1.91-.06.65-.14,1.16-.22,1.54-.08.63-.26,1.58-.53,2.85-.27,1.27-.54,2.56-.82,3.85-.27,1.3-.47,2.26-.59,2.88-.96,3.59-2.36,7.39-4.2,11.4-.33.71-.67,1.45-1,2.22-.33.77-.59,1.39-.75,1.85-.71,1.96-2.3,5.28-4.76,9.96-.46.88-.88,1.69-1.25,2.44s-.67,1.32-.88,1.69c-.04.08-.08.15-.13.19-.33.88-.5,1.71-.5,2.51,0,.29.02.59.06.88.38,3.09,2.34,5.49,5.89,7.21,1.08.59,2.13.88,3.13.88h.5c1.17-.17,2.82-.79,4.95-1.88.17-.08.35-.17.56-.25,1.17-.58,2.12-1.12,2.85-1.6.73-.48,1.59-1.24,2.57-2.29.98-1.04,2.43-2.69,4.35-4.95.38-.42.79-.88,1.25-1.38.88-1.04,1.57-1.83,2.07-2.35.5-.52.89-.89,1.16-1.1.27-.21.53-.35.78-.44.21-.04.4-.06.56-.06.54,0,1.07.19,1.57.56.67.5,1.07,1.19,1.19,2.07v.31c0,.54-.15,1.17-.44,1.88-.38.84-1.13,2.09-2.26,3.76-1.21,1.88-2.19,3.21-2.94,3.98-.75.77-1.75,1.58-3.01,2.41-.5.33-1.03.71-1.6,1.13-.56.42-1.01.79-1.35,1.13-1.17,1.04-2.08,1.83-2.73,2.35-.65.52-1.39,1.03-2.22,1.54-1.25.75-2.63,1.46-4.14,2.13-1.5.67-2.86,1.17-4.07,1.5-.46.13-.92.22-1.38.28-.46.06-1.02.09-1.69.09-.38.04-.71.06-1,.06-.84,0-1.55-.08-2.13-.25-.84-.17-1.75-.5-2.76-1-.71-.33-1.39-.75-2.04-1.25-.65-.5-1.43-1.17-2.35-2.01-1.04-.96-1.82-1.59-2.32-1.88-.5-.29-.94-.44-1.32-.44-.12,0-.25.02-.38.06-.5.08-.96.3-1.38.66-.42.36-.98,1.01-1.69,1.97-.25.33-.55.71-.91,1.13-.36.42-.68.77-.97,1.07-.63.59-1.48,1.36-2.57,2.32-1.09.96-1.92,1.65-2.51,2.07-.75.5-2,1.16-3.73,1.97s-3.25,1.43-4.54,1.85c-3.01.92-5.37,1.38-7.08,1.38-.29,0-.56-.02-.82-.06ZM663.17,703.93c2.13-.67,5.01-2.61,8.65-5.83,2.92-2.55,5.16-5.08,6.7-7.58.83-1.25,1.27-2.51,1.32-3.76v-.69c0-.58-.02-1.38-.06-2.38-.08-1.5-.21-3.05-.38-4.64-.25-1.84-.92-2.76-2-2.76-.38,0-.81.12-1.32.38-.63.38-1.49,1.02-2.6,1.94-1.11.92-2.14,1.88-3.1,2.88-.67.71-1.21,1.29-1.63,1.75-.42.46-.8.97-1.16,1.54-.36.56-.83,1.31-1.41,2.22-.29.5-.61,1-.94,1.5-.54.96-.98,1.69-1.32,2.19-2.67,4.43-4.01,7.83-4.01,10.21,0,1.04.25,1.9.75,2.57.38.42.86.63,1.44.63.33,0,.69-.06,1.06-.19ZM692.24,664.77c1.17-1.17,2.26-3.72,3.26-7.64.5-2.09.75-3.61.75-4.57,0-.75-.17-1.13-.5-1.13-.75,0-1.88,2.28-3.38,6.83-.5,1.5-.8,2.69-.91,3.57-.1.88-.16,1.5-.16,1.88,0,.54.08.92.25,1.13.12.17.25.25.38.25.08,0,.19-.1.31-.31Z"/>
      <path class="cls-1" d="M726.58,712.39c-.21-.04-.53-.13-.97-.25-.44-.13-.87-.27-1.28-.44-.38-.08-.81-.21-1.32-.38-.88-.29-1.73-.56-2.57-.81-4.85-1.42-7.48-3.36-7.9-5.83-.12-.42-.19-.86-.19-1.32v-.38c0-.58.08-1.42.25-2.51.13-.75.21-1.44.25-2.07.04-.63.08-1.46.12-2.51,0-.79,0-1.4-.03-1.82-.02-.42-.04-.75-.06-1-.02-.25-.07-.52-.16-.81-.25-.79-.38-1.35-.38-1.66v-.6c0-.46.08-.94.25-1.44.13-.25.25-.57.38-.97.13-.4.23-.76.31-1.1.04-.12.08-.27.13-.44.17-.54.27-.96.31-1.25.08-.21.2-.47.34-.78.15-.31.3-.62.47-.91.25-.38.56-.92.94-1.63.25-.46.48-.88.69-1.25.88-1.67,1.68-3.01,2.41-4.01.73-1,1.64-2.05,2.73-3.13,2.38-2.46,4.64-4.2,6.77-5.2.96-.46,1.92-.69,2.88-.69.33,0,.65.02.94.06.54.04,1.04.15,1.5.31.46.17,1.11.46,1.94.88.5.29.92.51,1.25.66.33.15.7.27,1.1.38.4.1.95.22,1.66.34.92.21,1.64.43,2.16.66.52.23.99.55,1.41.97.38.33.71.76,1,1.28.29.52.63,1.28,1,2.29,1.25,3.38,1.88,6.58,1.88,9.59,0,.59-.02,1.17-.06,1.75-.13,1.71-.36,3.27-.69,4.67-.33,1.4-.81,2.96-1.44,4.67-1.84,4.85-4.39,8.94-7.64,12.28-3.01,2.97-6.1,4.45-9.27,4.45-.38,0-.75-.02-1.13-.06ZM727.45,700.73c.83-.42,1.93-1.16,3.29-2.22,1.36-1.06,2.48-2.08,3.35-3.04,1.92-2.09,3.24-4.18,3.95-6.27.67-2.17,1-3.93,1-5.26,0-.5-.04-.94-.13-1.32-.38-.88-1.11-1.59-2.19-2.13-.38-.17-.71-.28-1-.34-.29-.06-.67-.11-1.13-.16h-.31c-1.8,0-3.3.67-4.51,2-.17.17-.34.37-.53.6-.19.23-.34.45-.47.66-.21.33-.66,1.14-1.35,2.41-.69,1.27-1.38,2.59-2.07,3.95-.69,1.36-1.16,2.31-1.41,2.85-.71,1.8-1.07,3.38-1.07,4.76,0,1.09.23,2.03.69,2.82.54.75,1.23,1.13,2.07,1.13.54,0,1.15-.15,1.82-.44Z"/>
      <path class="cls-1" d="M753.27,724.79c-.12-.04-.25-.13-.38-.25-.12-.12-.25-.27-.38-.44-.12-.17-.21-.38-.25-.63-.04-.25-.08-.67-.12-1.25,0-.84-.09-1.48-.28-1.94-.19-.46-.57-.98-1.16-1.57-.54-.58-.91-1.09-1.1-1.5-.19-.42-.28-.92-.28-1.5,0-.63.18-1.27.53-1.94.36-.67,1.06-1.59,2.1-2.76,1.5-1.88,3.78-4.16,6.83-6.83,1.63-1.5,2.76-2.86,3.38-4.07.29-.58.44-1.17.44-1.75,0-.46-.08-.9-.25-1.32-.5-1.04-1.63-2.05-3.38-3.01-.5-.29-1.07-.6-1.69-.94-.25-.12-.48-.23-.69-.31-.71-.42-1.39-.96-2.04-1.63-.65-.67-1.18-1.36-1.6-2.07-.29-.63-.53-1.2-.72-1.72-.19-.52-.34-1.16-.47-1.91-.08-.25-.17-.58-.25-1-.13-.67-.25-1.32-.38-1.94-.17-.88-.28-1.52-.34-1.94-.06-.42-.09-.75-.09-1v-.38c0-.38.04-.77.13-1.19.42-2.26,1.36-4.39,2.82-6.39.21-.29.66-.78,1.35-1.47.69-.69,1.45-1.43,2.29-2.22.79-.79,1.43-1.41,1.91-1.85s.86-.75,1.13-.94c.27-.19.55-.37.85-.53.29-.12.53-.22.72-.28.19-.06.4-.1.63-.13.23-.02.55-.03.97-.03s.75.01,1,.03c.25.02.52.06.81.13.29.06.65.18,1.07.34.46.17.96.33,1.5.5.54.17,1.02.29,1.44.38.38.13.73.24,1.07.34.33.1.58.2.75.28.83.46,1.4,1.02,1.69,1.69.29.67.44,1.25.44,1.75,0,.38-.06.77-.19,1.19-.21.79-.84,1.59-1.88,2.38-.21.17-.49.41-.85.72-.36.31-.74.66-1.16,1.03-.12.08-.25.19-.38.31-.75.79-1.38,1.35-1.88,1.66-.5.31-1.19.6-2.07.85-1.25.33-1.88.94-1.88,1.82,0,1.34,1.19,2.55,3.57,3.63,1.04.54,2.26,1.2,3.63,1.97,1.38.77,2.4,1.37,3.07,1.79.25.12.53.29.85.5.31.21.64.4.97.56.04.04.1.08.19.13.33.21.67.41,1,.6.33.19.61.32.81.41.54.17,1.09.25,1.63.25s1.11-.08,1.69-.25c.71-.25,1.66-.67,2.85-1.25,1.19-.58,2.41-1.25,3.67-2.01l.06-.06c.67-.38,1.34-.75,2-1.13.67-.38,1.19-.65,1.57-.81.58-.29,1.37-.64,2.35-1.03.98-.4,1.93-.76,2.85-1.1.92-.33,1.59-.54,2-.63.58-.13,1.19-.19,1.82-.19h.5c.83.04,1.46.17,1.88.38.54.29.81.69.81,1.19,0,.42-.17.9-.5,1.44-.42.59-1.19,1.43-2.32,2.54-1.13,1.11-2.3,2.18-3.51,3.23-1.21,1.04-2.17,1.8-2.88,2.26-.25.12-.65.32-1.19.6-.54.27-1.13.55-1.75.85-5.05,2.34-9.23,5.41-12.53,9.21-.42.5-.88,1.04-1.38,1.63-.5.59-.92,1.06-1.25,1.44-.38.38-.79.84-1.25,1.38-.46.54-.88,1.07-1.25,1.57-.38.5-.81,1.06-1.32,1.66-.5.61-.96,1.14-1.38,1.6-.38.46-.8,1.01-1.29,1.66-.48.65-.89,1.22-1.22,1.72-1.34,1.88-2.69,3.34-4.07,4.39-.5.38-1.25.88-2.26,1.5s-2,1.23-2.98,1.82c-.98.59-1.7,1-2.16,1.25-.96.42-1.75.63-2.38.63-.25,0-.46-.02-.63-.06Z"/>
    </g>
  </g>
</svg>